<svg width="928" height="604" xmlns="http://www.w3.org/2000/svg" xmlns:xlink="http://www.w3.org/1999/xlink" overflow="hidden"><defs><clipPath id="clip0"><path d="M24 19 952 19 952 623 24 623Z" fill-rule="evenodd" clip-rule="evenodd"/></clipPath></defs><g clip-path="url(#clip0)" transform="translate(-24 -19)"><rect x="25.5001" y="32.5001" width="925" height="590" stroke="#000000" stroke-miterlimit="8" fill="#FFFFFF"/><text font-family="Calibri,Calibri_MSFontService,sans-serif" font-weight="400" font-size="24" transform="translate(431.926 59)">Kubernetes</text><path d="M37.5001 93.8335C37.5001 90.3356 40.3356 87.5001 43.8335 87.5001L289.167 87.5001C292.664 87.5001 295.5 90.3356 295.5 93.8335L295.5 119.167C295.5 122.664 292.664 125.5 289.167 125.5L43.8335 125.5C40.3356 125.5 37.5001 122.664 37.5001 119.167Z" stroke="#000000" stroke-miterlimit="8" fill="#F2F2F2" fill-rule="evenodd"/><text font-family="Calibri,Calibri_MSFontService,sans-serif" font-weight="400" font-size="19" transform="translate(112.452 112)">Load Balancer</text><path d="M37.5001 172.066C37.5001 162.364 45.3645 154.5 55.0657 154.5L277.934 154.5C287.636 154.5 295.5 162.364 295.5 172.066L295.5 342.934C295.5 352.636 287.636 360.5 277.934 360.5L55.0657 360.5C45.3645 360.5 37.5001 352.636 37.5001 342.934Z" stroke="#000000" stroke-miterlimit="8" fill="#DEEBF7" fill-rule="evenodd"/><text font-family="Calibri,Calibri_MSFontService,sans-serif" font-weight="400" font-size="19" transform="translate(51.6193 181)">webserver-<tspan x="85.4" y="0">k8s</tspan></text><path d="M48.5001 207.167C48.5001 204.037 51.0371 201.5 54.1668 201.5L275.833 201.5C278.963 201.5 281.5 204.037 281.5 207.167L281.5 229.833C281.5 232.963 278.963 235.5 275.833 235.5L54.1668 235.5C51.0371 235.5 48.5001 232.963 48.5001 229.833Z" stroke="#000000" stroke-miterlimit="8" fill="#FFFFFF" fill-rule="evenodd"/><text font-family="Calibri,Calibri_MSFontService,sans-serif" font-weight="400" font-size="16" transform="translate(141.559 224)">Service</text><path d="M48.5001 280C48.5001 272.544 54.5443 266.5 62.0002 266.5L268 266.5C275.456 266.5 281.5 272.544 281.5 280L281.5 334C281.5 341.456 275.456 347.5 268 347.5L62.0002 347.5C54.5443 347.5 48.5001 341.456 48.5001 334Z" stroke="#000000" stroke-miterlimit="8" fill="#FFFFFF" fill-rule="evenodd"/><text font-family="Calibri,Calibri_MSFontService,sans-serif" font-weight="400" font-size="16" transform="translate(124.999 289)">Deployment</text><path d="M57.5001 311.333C57.5001 308.664 59.6641 306.5 62.3335 306.5L118.667 306.5C121.336 306.5 123.5 308.664 123.5 311.333L123.5 330.667C123.5 333.336 121.336 335.5 118.667 335.5L62.3335 335.5C59.6641 335.5 57.5001 333.336 57.5001 330.667Z" stroke="#000000" stroke-miterlimit="8" fill="#FFFFFF" fill-rule="evenodd"/><text font-family="Calibri,Calibri_MSFontService,sans-serif" font-weight="400" font-size="16" transform="translate(72.5159 326)">nginx</text><path d="M133.5 311.333C133.5 308.664 135.664 306.5 138.333 306.5L193.667 306.5C196.336 306.5 198.5 308.664 198.5 311.333L198.5 330.667C198.5 333.336 196.336 335.5 193.667 335.5L138.333 335.5C135.664 335.5 133.5 333.336 133.5 330.667Z" stroke="#000000" stroke-miterlimit="8" fill="#FFFFFF" fill-rule="evenodd"/><text font-family="Calibri,Calibri_MSFontService,sans-serif" font-weight="400" font-size="16" transform="translate(148.119 326)">nginx</text><path d="M209.5 311.333C209.5 308.664 211.664 306.5 214.333 306.5L269.667 306.5C272.336 306.5 274.5 308.664 274.5 311.333L274.5 330.667C274.5 333.336 272.336 335.5 269.667 335.5L214.333 335.5C211.664 335.5 209.5 333.336 209.5 330.667Z" stroke="#000000" stroke-miterlimit="8" fill="#FFFFFF" fill-rule="evenodd"/><text font-family="Calibri,Calibri_MSFontService,sans-serif" font-weight="400" font-size="16" transform="translate(224.335 326)">nginx</text><path d="M360.5 169.023C360.5 161.002 367.002 154.5 375.023 154.5L603.977 154.5C611.998 154.5 618.5 161.002 618.5 169.023L618.5 345.977C618.5 353.998 611.998 360.5 603.977 360.5L375.023 360.5C367.002 360.5 360.5 353.998 360.5 345.977Z" stroke="#000000" stroke-miterlimit="8" fill="#FBE5D6" fill-rule="evenodd"/><text font-family="Calibri,Calibri_MSFontService,sans-serif" font-weight="400" font-size="19" transform="translate(373.992 180)">appserver<tspan x="76.0667" y="0">-</tspan><tspan x="81.7333" y="0">k8s</tspan></text><path d="M373.5 207.167C373.5 204.037 376.037 201.5 379.167 201.5L600.833 201.5C603.963 201.5 606.5 204.037 606.5 207.167L606.5 229.833C606.5 232.963 603.963 235.5 600.833 235.5L379.167 235.5C376.037 235.5 373.5 232.963 373.5 229.833Z" stroke="#000000" stroke-miterlimit="8" fill="#FFFFFF" fill-rule="evenodd"/><text font-family="Calibri,Calibri_MSFontService,sans-serif" font-weight="400" font-size="16" transform="translate(465.726 224)">Service</text><path d="M373.5 280.167C373.5 272.619 379.619 266.5 387.167 266.5L592.833 266.5C600.381 266.5 606.5 272.619 606.5 280.167L606.5 334.833C606.5 342.381 600.381 348.5 592.833 348.5L387.167 348.5C379.619 348.5 373.5 342.381 373.5 334.833Z" stroke="#000000" stroke-miterlimit="8" fill="#FFFFFF" fill-rule="evenodd"/><text font-family="Calibri,Calibri_MSFontService,sans-serif" font-weight="400" font-size="16" transform="translate(449.165 289)">Deployment</text><path d="M380.5 310.667C380.5 307.813 382.813 305.5 385.667 305.5L444.333 305.5C447.187 305.5 449.5 307.813 449.5 310.667L449.5 331.333C449.5 334.187 447.187 336.5 444.333 336.5L385.667 336.5C382.813 336.5 380.5 334.187 380.5 331.333Z" stroke="#000000" stroke-miterlimit="8" fill="#FFFFFF" fill-rule="evenodd"/><text font-family="Calibri,Calibri_MSFontService,sans-serif" font-weight="400" font-size="16" transform="translate(391.798 325)">tomcat</text><path d="M455.5 310.667C455.5 307.813 457.813 305.5 460.667 305.5L519.333 305.5C522.187 305.5 524.5 307.813 524.5 310.667L524.5 331.333C524.5 334.187 522.187 336.5 519.333 336.5L460.667 336.5C457.813 336.5 455.5 334.187 455.5 331.333Z" stroke="#000000" stroke-miterlimit="8" fill="#FFFFFF" fill-rule="evenodd"/><text font-family="Calibri,Calibri_MSFontService,sans-serif" font-weight="400" font-size="16" transform="translate(466.015 325)">tomcat</text><path d="M529.5 310.667C529.5 307.813 531.813 305.5 534.667 305.5L593.333 305.5C596.187 305.5 598.5 307.813 598.5 310.667L598.5 331.333C598.5 334.187 596.187 336.5 593.333 336.5L534.667 336.5C531.813 336.5 529.5 334.187 529.5 331.333Z" stroke="#000000" stroke-miterlimit="8" fill="#FFFFFF" fill-rule="evenodd"/><text font-family="Calibri,Calibri_MSFontService,sans-serif" font-weight="400" font-size="16" transform="translate(540.882 325)">tomcat</text><path d="M360.5 435.968C360.5 425.768 368.768 417.5 378.968 417.5L600.032 417.5C610.232 417.5 618.5 425.768 618.5 435.968L618.5 586.032C618.5 596.232 610.232 604.5 600.032 604.5L378.968 604.5C368.768 604.5 360.5 596.232 360.5 586.032Z" stroke="#000000" stroke-miterlimit="8" fill="#FBE5D6" fill-rule="evenodd"/><text font-family="Calibri,Calibri_MSFontService,sans-serif" font-weight="400" font-size="19" transform="translate(375.153 444)">redis-<tspan x="42.7534" y="0">k8s</tspan></text><path d="M373.5 470.167C373.5 467.037 376.037 464.5 379.167 464.5L600.833 464.5C603.963 464.5 606.5 467.037 606.5 470.167L606.5 492.833C606.5 495.963 603.963 498.5 600.833 498.5L379.167 498.5C376.037 498.5 373.5 495.963 373.5 492.833Z" stroke="#000000" stroke-miterlimit="8" fill="#FFFFFF" fill-rule="evenodd"/><text font-family="Calibri,Calibri_MSFontService,sans-serif" font-weight="400" font-size="16" transform="translate(465.726 486)">Service</text><path d="M373.5 538.833C373.5 533.126 378.126 528.5 383.833 528.5L596.167 528.5C601.874 528.5 606.5 533.126 606.5 538.833L606.5 580.167C606.5 585.874 601.874 590.5 596.167 590.5L383.833 590.5C378.126 590.5 373.5 585.874 373.5 580.167Z" stroke="#000000" stroke-miterlimit="8" fill="#FFFFFF" fill-rule="evenodd"/><text font-family="Calibri,Calibri_MSFontService,sans-serif" font-weight="400" font-size="16" transform="translate(449.165 551)">Deployment</text><path d="M449.5 563.333C449.5 561.216 451.216 559.5 453.333 559.5L525.667 559.5C527.784 559.5 529.5 561.216 529.5 563.333L529.5 578.667C529.5 580.784 527.784 582.5 525.667 582.5L453.333 582.5C451.216 582.5 449.5 580.784 449.5 578.667Z" stroke="#000000" stroke-miterlimit="8" fill="#FFFFFF" fill-rule="evenodd"/><text font-family="Calibri,Calibri_MSFontService,sans-serif" font-weight="400" font-size="16" transform="translate(473.239 576)">redis</text><path d="M683.5 169.51C683.5 161.22 690.22 154.5 698.51 154.5L926.49 154.5C934.78 154.5 941.5 161.22 941.5 169.51L941.5 332.49C941.5 340.78 934.78 347.5 926.49 347.5L698.51 347.5C690.22 347.5 683.5 340.78 683.5 332.49Z" stroke="#000000" stroke-miterlimit="8" fill="#E2F0D9" fill-rule="evenodd"/><text font-family="Calibri,Calibri_MSFontService,sans-serif" font-weight="400" font-size="19" transform="translate(697.399 180)">dbserver<tspan x="67.0667" y="0">-</tspan><tspan x="72.7333" y="0">k8s</tspan></text><path d="M696.5 207.167C696.5 204.037 699.037 201.5 702.167 201.5L923.833 201.5C926.963 201.5 929.5 204.037 929.5 207.167L929.5 229.833C929.5 232.963 926.963 235.5 923.833 235.5L702.167 235.5C699.037 235.5 696.5 232.963 696.5 229.833Z" stroke="#000000" stroke-miterlimit="8" fill="#FFFFFF" fill-rule="evenodd"/><text font-family="Calibri,Calibri_MSFontService,sans-serif" font-weight="400" font-size="16" transform="translate(788.989 223)">Service</text><path d="M696.5 277C696.5 270.649 701.649 265.5 708 265.5L918 265.5C924.351 265.5 929.5 270.649 929.5 277L929.5 323C929.5 329.351 924.351 334.5 918 334.5L708 334.5C701.649 334.5 696.5 329.351 696.5 323Z" stroke="#000000" stroke-miterlimit="8" fill="#FFFFFF" fill-rule="evenodd"/><text font-family="Calibri,Calibri_MSFontService,sans-serif" font-weight="400" font-size="16" transform="translate(777.099 289)">StatefulSet</text><path d="M765.5 307C765.5 304.515 767.515 302.5 770 302.5L856 302.5C858.485 302.5 860.5 304.515 860.5 307L860.5 325C860.5 327.485 858.485 329.5 856 329.5L770 329.5C767.515 329.5 765.5 327.485 765.5 325Z" stroke="#000000" stroke-miterlimit="8" fill="#FFFFFF" fill-rule="evenodd"/><text font-family="Calibri,Calibri_MSFontService,sans-serif" font-weight="400" font-size="16" transform="translate(778.593 321)">postgresql</text><path d="M0.499965-0.00589358 1.39129 75.607 0.391359 75.6188-0.499965 0.00589358ZM5.8982 67.8052 0.903019 76.605-4.29821 67.9254C-4.44015 67.6885-4.36319 67.3814-4.12633 67.2395-3.88946 67.0975-3.58237 67.1745-3.44043 67.4113L1.32021 75.3558 0.456494 75.366 5.02854 67.3115C5.16486 67.0714 5.47005 66.9872 5.7102 67.1235 5.95035 67.2598 6.03452 67.565 5.8982 67.8052Z" transform="matrix(-1 -8.74228e-08 -8.74228e-08 1 166.403 125.5)"/><path d="M166 235.5 166 264.955 165 264.955 165 235.5ZM170.599 257.207 165.5 265.947 160.402 257.207C160.262 256.968 160.343 256.662 160.582 256.523 160.82 256.384 161.126 256.464 161.265 256.703L165.932 264.703 165.068 264.703 169.735 256.703C169.874 256.464 170.18 256.384 170.419 256.523 170.657 256.662 170.738 256.968 170.599 257.207Z"/><path d="M0.5-1.72422e-06 0.500102 29.4547-0.499898 29.4547-0.5 1.72422e-06ZM5.09863 21.7066 0.000105031 30.447-5.09848 21.7067C-5.23762 21.4682-5.15706 21.162-4.91853 21.0229-4.68 20.8837-4.37385 20.9643-4.2347 21.2028L0.43199 29.2028-0.431789 29.2028 4.23485 21.2028C4.37399 20.9642 4.68015 20.8837 4.91867 21.0228 5.1572 21.162 5.23777 21.4681 5.09863 21.7066Z" transform="matrix(-1 -8.74228e-08 -8.74228e-08 1 489.5 235.5)"/><path d="M0.5-1.72422e-06 0.500102 29.4547-0.499898 29.4547-0.5 1.72422e-06ZM5.09863 21.7066 0.000105031 30.447-5.09848 21.7067C-5.23762 21.4682-5.15706 21.162-4.91853 21.0229-4.68 20.8837-4.37385 20.9643-4.2347 21.2028L0.43199 29.2028-0.431789 29.2028 4.23485 21.2028C4.37399 20.9642 4.68015 20.8837 4.91867 21.0228 5.1572 21.162 5.23777 21.4681 5.09863 21.7066Z" transform="matrix(-1 -8.74228e-08 -8.74228e-08 1 489.5 498.5)"/><path d="M0-0.5 46.0716-0.5 46.0716 88.1062 45.5716 87.6062 90.1532 87.6062 90.1532 88.6062 45.0716 88.6062 45.0716 0 45.5716 0.5 0 0.5ZM82.4051 83.0077 91.1455 88.1062 82.4051 93.2048C82.1666 93.3439 81.8605 93.2634 81.7213 93.0248 81.5822 92.7863 81.6627 92.4802 81.9013 92.341L89.9013 87.6744 89.9013 88.5381 81.9013 83.8715C81.6627 83.7323 81.5822 83.4262 81.7213 83.1876 81.8605 82.9491 82.1666 82.8685 82.4051 83.0077Z" transform="matrix(1 0 0 -1 281.5 306.606)"/><path d="M490 348.5 490 463.46 489 463.46 489 348.5ZM494.599 455.711 489.5 464.452 484.402 455.711C484.262 455.473 484.343 455.167 484.582 455.028 484.82 454.888 485.126 454.969 485.265 455.208L489.932 463.208 489.068 463.208 493.735 455.208C493.874 454.969 494.18 454.888 494.419 455.028 494.657 455.167 494.738 455.473 494.599 455.711Z"/><path d="M0-0.5 45.6202-0.5 45.6202 88.7945 45.1202 88.2945 89.2503 88.2945 89.2503 89.2945 44.6202 89.2945 44.6202 0 45.1202 0.5 0 0.5ZM81.5023 83.696 90.2426 88.7945 81.5023 93.8931C81.2637 94.0322 80.9576 93.9517 80.8184 93.7131 80.6793 93.4746 80.7598 93.1685 80.9984 93.0293L88.9984 88.3626 88.9984 89.2264 80.9984 84.5598C80.7598 84.4206 80.6793 84.1145 80.8184 83.8759 80.9576 83.6374 81.2637 83.5568 81.5023 83.696Z" transform="matrix(1 0 0 -1 606.5 307.295)"/><path d="M0.5-1.72422e-06 0.500102 29.4547-0.499898 29.4547-0.5 1.72422e-06ZM5.09863 21.7066 0.000105031 30.447-5.09848 21.7067C-5.23762 21.4682-5.15706 21.162-4.91853 21.0229-4.68 20.8837-4.37385 20.9643-4.2347 21.2028L0.43199 29.2028-0.431789 29.2028 4.23485 21.2028C4.37399 20.9642 4.68015 20.8837 4.91867 21.0228 5.1572 21.162 5.23777 21.4681 5.09863 21.7066Z" transform="matrix(-1 -8.74228e-08 -8.74228e-08 1 812.5 235.5)"/><path d="M167 20.5001 167 86.7785 166 86.7785 166 20.5001ZM171.599 79.03 166.5 87.7704 161.402 79.03C161.262 78.7915 161.343 78.4853 161.582 78.3462 161.82 78.2071 162.126 78.2876 162.265 78.5262L166.932 86.5261 166.068 86.5261 170.735 78.5261C170.874 78.2876 171.18 78.207 171.419 78.3462 171.657 78.4853 171.738 78.7915 171.599 79.03Z"/></g></svg>